<svg {{ with .Class }}class="{{ . }}" {{ end }}{{ with .Width }} width="{{ . }}" {{ end }}{{ with .Height }} height="{{ . }}" {{ end }}xmlns="http://www.w3.org/2000/svg" viewBox="0 0 512 512" fill="{{ .Fill | default "currentColor" }}"{{ with .Style }} style="{{ . }} "{{ end }}>
    <path d="M288 448L64 448l0-224 64 0 0-64-64 0c-35.3 0-64 28.7-64 64L0 448c0 35.3 28.7 64 64 64l224 0c35.3 0 64-28.7 64-64l0-64-64 0 0 64zm-64-96l224 0c35.3 0 64-28.7 64-64l0-224c0-35.3-28.7-64-64-64L224 0c-35.3 0-64 28.7-64 64l0 224c0 35.3 28.7 64 64 64z"></path>
</svg>