<svg {{ with .Class }}class="{{ . }}" {{ end }}{{ with .Width }} width="{{ . }}" {{ end }}{{ with .Height }} height="{{ . }}" {{ end }}xmlns="http://www.w3.org/2000/svg" viewBox="0 0 384 512" fill="{{ .Fill | default "currentColor" }}"{{ with .Style }} style="{{ . }} "{{ end }}>
    <path d="M176 0c-26.5 0-48 21.5-48 48v80H48c-26.5 0-48 21.5-48 48v32c0 26.5 21.5 48 48 48h80V464c0 26.5 21.5 48 48 48h32c26.5 0 48-21.5 48-48V256h80c26.5 0 48-21.5 48-48V176c0-26.5-21.5-48-48-48H256V48c0-26.5-21.5-48-48-48H176z"></path>
</svg>